<svg width="129" height="35" viewBox="0 0 129 35" fill="none" xmlns="http://www.w3.org/2000/svg">
<path fill-rule="evenodd" clip-rule="evenodd" d="M12.7134 30.0759C12.7106 29.9883 12.7094 29.9006 12.7094 29.813V25.6922C12.7094 25.5612 12.6967 25.4218 12.667 25.2821C12.6661 25.3524 12.6656 25.4232 12.6656 25.4945V29.2774C12.6656 29.5444 12.6757 29.8134 12.7134 30.0759ZM17.403 16.9836C19.237 18.2405 20.8563 20.5014 21.1527 24.2965C21.3354 24.2168 21.5577 24.1699 21.8265 24.1699H25.9103C27.1849 24.1699 29.0008 23.5454 29.0008 20.5275C29.0008 17.5096 27.4953 16.4436 25.9103 16.4436H19.9502C19.2237 16.4436 18.3218 16.5984 17.403 16.9836Z" fill="#1322B8"/>
<path fill-rule="evenodd" clip-rule="evenodd" d="M20.3924 25.4945V29.2774C20.3924 29.8444 20.347 30.4202 20.0882 30.9247C19.6523 31.7741 18.6551 33.0001 16.5294 33.0001C14.4036 33.0001 13.4064 31.7741 12.9706 30.9247C12.7117 30.4202 12.6663 29.8444 12.6663 29.2774V25.6049C12.6663 24.9899 12.3562 24.1699 11.2315 24.1699C10.1068 24.1699 8.42233 24.1699 7.1477 24.1699C5.87307 24.1699 4.05724 23.5454 4.05724 20.5275C4.05724 17.5096 5.56266 16.4436 7.1477 16.4436H13.1079C15.6645 16.4436 20.3924 18.3601 20.3924 25.4945Z" fill="#2B7DF7"/>
<g clip-path="url(#clip0)">
<path d="M22.668 5.38236L22.573 5.113L15.4156 4.32292L10.3409 9.42274L10.4377 9.69726L17.5888 10.4867L22.668 5.38236Z" fill="#2B7DF7"/>
<path d="M23.5239 9.86376L22.4619 6.85176L22.0641 7.26637L23.04 10.0344L23.0634 11.106L23.7648 11.5759L23.9261 11.519L24.1777 10.7131L23.5239 9.86376Z" fill="#2B7DF7"/>
</g>
<g clip-path="url(#clip1)">
<path fill-rule="evenodd" clip-rule="evenodd" d="M12.9451 10.9264C13.0328 11.3824 13.1757 11.8613 13.3248 12.3611C13.9982 14.6182 16.3753 15.9018 18.6342 15.2279C20.8929 14.554 22.1781 12.1778 21.5047 9.92064C21.4365 9.69229 21.3756 9.46657 21.3162 9.24672C21.2269 8.91603 21.1412 8.59863 21.0401 8.30556L17.889 11.4722L12.9451 10.9264Z" fill="#0DCDF7"/>
</g>
<path d="M40.5451 26.6005C38.8331 26.1084 37.5855 25.5054 36.8023 24.7915C36.026 24.0706 35.6378 23.1834 35.6378 22.1299C35.6378 20.9377 36.1126 19.9535 37.0622 19.1772C38.0187 18.394 39.2594 18.0024 40.7842 18.0024C41.8239 18.0024 42.7492 18.2034 43.5602 18.6054C44.378 19.0074 45.0088 19.5619 45.4524 20.2689C45.9029 20.9759 46.1282 21.7487 46.1282 22.5873H44.1216C44.1216 21.6724 43.8305 20.9551 43.2483 20.4352C42.666 19.9085 41.8447 19.6451 40.7842 19.6451C39.8 19.6451 39.0307 19.8634 38.4762 20.3001C37.9286 20.7298 37.6548 21.3293 37.6548 22.0987C37.6548 22.7156 37.9147 23.2389 38.4346 23.6686C38.9613 24.0914 39.852 24.4796 41.1065 24.833C42.368 25.1865 43.3522 25.5781 44.0592 26.0079C44.7731 26.4307 45.2999 26.9263 45.6395 27.4946C45.9861 28.063 46.1594 28.7318 46.1594 29.5012C46.1594 30.728 45.6811 31.7122 44.7246 32.4539C43.7681 33.1886 42.4893 33.5559 40.8882 33.5559C39.8485 33.5559 38.8782 33.3584 37.9771 32.9633C37.0761 32.5613 36.3795 32.0137 35.8874 31.3206C35.4022 30.6275 35.1596 29.8408 35.1596 28.9606H37.1662C37.1662 29.8755 37.5023 30.5998 38.1747 31.1335C38.8539 31.6603 39.7584 31.9236 40.8882 31.9236C41.9417 31.9236 42.7492 31.7088 43.3106 31.279C43.8721 30.8493 44.1528 30.2636 44.1528 29.522C44.1528 28.7803 43.8929 28.2085 43.373 27.8065C42.8532 27.3976 41.9106 26.9956 40.5451 26.6005ZM59.8623 28.5447C59.6751 30.1458 59.0825 31.383 58.0844 32.2563C57.0933 33.1227 55.7729 33.5559 54.1233 33.5559C52.335 33.5559 50.9003 32.9148 49.819 31.6325C48.7447 30.3503 48.2075 28.6348 48.2075 26.4861V25.0306C48.2075 23.6236 48.457 22.3863 48.9561 21.3189C49.4621 20.2515 50.176 19.4337 51.0978 18.8653C52.0197 18.29 53.0871 18.0024 54.3 18.0024C55.9081 18.0024 57.1973 18.4529 58.1676 19.354C59.138 20.2481 59.7029 21.4888 59.8623 23.076H57.8557C57.6824 21.87 57.3047 20.9966 56.7225 20.456C56.1472 19.9154 55.3397 19.6451 54.3 19.6451C53.0247 19.6451 52.0231 20.1164 51.2954 21.059C50.5745 22.0017 50.2141 23.3428 50.2141 25.0826V26.5485C50.2141 28.1912 50.5572 29.4977 51.2434 30.4681C51.9296 31.4385 52.8895 31.9236 54.1233 31.9236C55.2323 31.9236 56.0813 31.6741 56.6705 31.1751C57.2666 30.6691 57.6616 29.7923 57.8557 28.5447H59.8623ZM74.2306 33.348H72.224V26.351H64.5928V33.348H62.5966V18.2103H64.5928V24.7187H72.224V18.2103H74.2306V33.348ZM89.4203 26.2678C89.4203 27.7511 89.1707 29.0472 88.6717 30.1562C88.1727 31.2582 87.4657 32.1004 86.5508 32.6826C85.6358 33.2648 84.5684 33.5559 83.3486 33.5559C82.1564 33.5559 81.0994 33.2648 80.1775 32.6826C79.2557 32.0934 78.5383 31.2582 78.0254 30.177C77.5194 29.0888 77.2595 27.8308 77.2457 26.403V25.3113C77.2457 23.8558 77.4986 22.57 78.0046 21.4541C78.5106 20.3382 79.2245 19.4856 80.1464 18.8965C81.0751 18.3004 82.1356 18.0024 83.3278 18.0024C84.5407 18.0024 85.6081 18.297 86.53 18.8861C87.4587 19.4683 88.1727 20.3174 88.6717 21.4333C89.1707 22.5423 89.4203 23.835 89.4203 25.3113V26.2678ZM87.4345 25.2905C87.4345 23.4953 87.0741 22.1195 86.3532 21.163C85.6324 20.1996 84.6239 19.7178 83.3278 19.7178C82.0663 19.7178 81.0717 20.1996 80.3439 21.163C79.6231 22.1195 79.2522 23.4503 79.2314 25.1553V26.2678C79.2314 28.0075 79.5953 29.3764 80.3231 30.3745C81.0578 31.3657 82.0663 31.8613 83.3486 31.8613C84.6378 31.8613 85.6358 31.3934 86.3428 30.4577C87.0498 29.5151 87.4137 28.1669 87.4345 26.4134V25.2905ZM94.4211 31.7157H101.595V33.348H92.4145V18.2103H94.4211V31.7157ZM112.439 29.3972H106.097L104.672 33.348H102.614L108.394 18.2103H110.141L115.932 33.348H113.884L112.439 29.3972ZM106.7 27.7545H111.846L109.268 20.6743L106.7 27.7545ZM123.522 27.2243H119.966V33.348H117.959V18.2103H122.971C124.676 18.2103 125.986 18.5985 126.901 19.3748C127.822 20.151 128.283 21.2808 128.283 22.7641C128.283 23.7067 128.027 24.5281 127.514 25.2281C127.008 25.9282 126.301 26.4515 125.393 26.798L128.949 33.2232V33.348H126.807L123.522 27.2243ZM119.966 25.592H123.033C124.024 25.592 124.811 25.3356 125.393 24.8227C125.982 24.3097 126.277 23.6236 126.277 22.7641C126.277 21.8284 125.996 21.111 125.435 20.612C124.88 20.1129 124.076 19.8599 123.023 19.853H119.966V25.592Z" fill="#3D4865"/>
<path d="M39.0874 11.8836C38.9676 12.9084 38.5883 13.7003 37.9495 14.2593C37.3151 14.8138 36.47 15.0911 35.4141 15.0911C34.2695 15.0911 33.3512 14.6807 32.6592 13.86C31.9715 13.0393 31.6277 11.9413 31.6277 10.566V9.63436C31.6277 8.73379 31.7874 7.9419 32.1068 7.2587C32.4307 6.5755 32.8876 6.05202 33.4777 5.68824C34.0677 5.32002 34.7509 5.13591 35.5272 5.13591C36.5565 5.13591 37.3816 5.42427 38.0027 6.001C38.6238 6.57329 38.9854 7.36739 39.0874 8.38332H37.8031C37.6922 7.61139 37.4504 7.05241 37.0778 6.70638C36.7095 6.36034 36.1927 6.18732 35.5272 6.18732C34.711 6.18732 34.0699 6.489 33.6041 7.09234C33.1427 7.69568 32.912 8.55411 32.912 9.66764V10.6059C32.912 11.6573 33.1316 12.4936 33.5708 13.1147C34.01 13.7358 34.6245 14.0463 35.4141 14.0463C36.1239 14.0463 36.6674 13.8866 37.0445 13.5672C37.426 13.2433 37.6789 12.6821 37.8031 11.8836H39.0874ZM42.8033 13.9132H47.3949V14.958H41.519V5.269H42.8033V13.9132ZM50.9045 14.958H49.6268V5.269H50.9045V14.958ZM61.3747 14.958H60.0904L55.2126 7.49161V14.958H53.9283V5.269H55.2126L60.1037 12.7686V5.269H61.3747V14.958ZM65.6962 14.958H64.4185V5.269H65.6962V14.958ZM75.847 11.8836C75.7272 12.9084 75.3479 13.7003 74.709 14.2593C74.0746 14.8138 73.2295 15.0911 72.1737 15.0911C71.0291 15.0911 70.1108 14.6807 69.4187 13.86C68.7311 13.0393 68.3873 11.9413 68.3873 10.566V9.63436C68.3873 8.73379 68.547 7.9419 68.8664 7.2587C69.1902 6.5755 69.6472 6.05202 70.2372 5.68824C70.8272 5.32002 71.5104 5.13591 72.2868 5.13591C73.316 5.13591 74.1412 5.42427 74.7623 6.001C75.3834 6.57329 75.7449 7.36739 75.847 8.38332H74.5626C74.4517 7.61139 74.21 7.05241 73.8373 6.70638C73.4691 6.36034 72.9522 6.18732 72.2868 6.18732C71.4705 6.18732 70.8295 6.489 70.3636 7.09234C69.9023 7.69568 69.6716 8.55411 69.6716 9.66764V10.6059C69.6716 11.6573 69.8912 12.4936 70.3304 13.1147C70.7696 13.7358 71.384 14.0463 72.1737 14.0463C72.8835 14.0463 73.4269 13.8866 73.804 13.5672C74.1856 13.2433 74.4384 12.6821 74.5626 11.8836H75.847ZM83.6288 12.4293H79.5695L78.6578 14.958H77.3402L81.0401 5.269H82.1581L85.8647 14.958H84.5537L83.6288 12.4293ZM79.9555 11.3778H83.2494L81.5991 6.84612L79.9555 11.3778ZM89.1347 13.9132H93.7263V14.958H87.8504V5.269H89.1347V13.9132Z" fill="#3D4865"/>
<defs>
<clipPath id="clip0">
<rect width="12.9691" height="12.9691" fill="white" transform="translate(8.7457 4.89713) rotate(-19.4211)"/>
</clipPath>
<clipPath id="clip1">
<rect width="11.0976" height="12.8618" fill="white" transform="translate(10.1888 4.47852) rotate(-10.1439)"/>
</clipPath>
</defs>
</svg>
