<svg width="208" height="49" viewBox="0 0 208 49" fill="none" xmlns="http://www.w3.org/2000/svg">
<g clip-path="url(#clip0)">
<path fill-rule="evenodd" clip-rule="evenodd" d="M14.4995 41.7251C14.4949 41.5797 14.493 41.4341 14.493 41.2888V34.4317C14.493 34.214 14.4718 33.9823 14.4226 33.75C14.421 33.8668 14.4203 33.9844 14.4203 34.1028V40.3976C14.4203 40.8415 14.437 41.2886 14.4995 41.7251ZM22.3032 19.9408C25.355 22.0323 28.0495 25.7945 28.5426 32.1095C28.8466 31.9768 29.2166 31.8988 29.664 31.8988H36.4594C38.5804 31.8988 41.6019 30.8596 41.6019 25.8378C41.6019 20.816 39.0969 19.0422 36.4594 19.0422H26.5417C25.3328 19.0422 23.8322 19.2997 22.3032 19.9408Z" fill="#1322B8"/>
<path fill-rule="evenodd" clip-rule="evenodd" d="M27.2773 34.1028V40.3976C27.2773 41.3411 27.2017 42.2993 26.771 43.1388C26.0458 44.5521 24.3864 46.5923 20.8492 46.5923C17.312 46.5923 15.6525 44.5521 14.9273 43.1388C14.4966 42.2993 14.4211 41.3411 14.4211 40.3976V34.2867C14.4211 33.2632 13.905 31.8988 12.0335 31.8988C10.162 31.8988 7.35906 31.8988 5.23808 31.8988C3.11709 31.8988 0.0955601 30.8596 0.0955601 25.8378C0.0955601 20.816 2.60058 19.0422 5.23808 19.0422H15.1558C19.41 19.0422 27.2773 22.2313 27.2773 34.1028Z" fill="#2B7DF7"/>
<g clip-path="url(#clip1)">
<path d="M31.0636 0.63626L30.9055 0.188045L18.9957 -1.12665L10.5513 7.35946L10.7124 7.81625L22.6118 9.12988L31.0636 0.63626Z" fill="#2B7DF7"/>
<path d="M32.4878 8.09333L30.7207 3.08137L30.0587 3.77127L31.6827 8.3772L31.7215 10.1604L32.8888 10.9423L33.1571 10.8477L33.5759 9.50664L32.4878 8.09333Z" fill="#2B7DF7"/>
</g>
<path fill-rule="evenodd" clip-rule="evenodd" d="M14.8833 9.86164C15.0292 10.6203 15.2669 11.4171 15.515 12.2488C16.6356 16.0047 20.5911 18.1406 24.3498 17.0192C28.1083 15.8978 30.2469 11.9438 29.1264 8.18793C29.013 7.80796 28.9116 7.43236 28.8128 7.06652C28.6642 6.51658 28.5217 5.98872 28.3535 5.50128L23.1109 10.7699L14.8833 9.86164Z" fill="#0DCDF7"/>
<path d="M60.2382 40.2824C60.2382 39.3021 59.8922 38.5524 59.2002 38.0334C58.5081 37.5029 57.2625 36.9493 55.4633 36.3726C53.6641 35.7844 52.2397 35.2077 51.1902 34.6426C48.3299 33.0971 46.8997 31.0153 46.8997 28.3972C46.8997 27.0362 47.2803 25.8252 48.0415 24.7642C48.8143 23.6915 49.9157 22.8554 51.3459 22.2556C52.7875 21.6559 54.4022 21.356 56.1899 21.356C57.9891 21.356 59.5923 21.6847 60.9994 22.3421C62.4065 22.988 63.4964 23.9049 64.2691 25.0929C65.0534 26.2808 65.4455 27.6302 65.4455 29.1411H60.2555C60.2555 27.9878 59.8922 27.0939 59.1656 26.4596C58.4389 25.8137 57.4182 25.4908 56.1034 25.4908C54.8347 25.4908 53.8486 25.7618 53.1451 26.3039C52.4415 26.8344 52.0898 27.538 52.0898 28.4145C52.0898 29.2334 52.4992 29.9196 53.3181 30.4732C54.1485 31.0268 55.3653 31.5458 56.9684 32.0302C59.921 32.9183 62.072 34.0198 63.4214 35.3346C64.7708 36.6494 65.4455 38.2871 65.4455 40.2478C65.4455 42.4277 64.6209 44.1404 62.9716 45.386C61.3223 46.6201 59.1021 47.2371 56.311 47.2371C54.3734 47.2371 52.6088 46.8853 51.0172 46.1818C49.4255 45.4667 48.2088 44.4922 47.3668 43.2581C46.5364 42.024 46.1212 40.5938 46.1212 38.9676H51.3286C51.3286 41.7472 52.9894 43.137 56.311 43.137C57.5451 43.137 58.5081 42.889 59.2002 42.3931C59.8922 41.8856 60.2382 41.182 60.2382 40.2824ZM88.7489 38.5005C88.5528 41.2109 87.5494 43.3446 85.7387 44.9016C83.9394 46.4586 81.5636 47.2371 78.611 47.2371C75.3816 47.2371 72.8385 46.153 70.9816 43.9847C69.1362 41.8049 68.2136 38.8177 68.2136 35.0232V33.4835C68.2136 31.0614 68.6403 28.9277 69.4938 27.0824C70.3473 25.237 71.564 23.8242 73.1441 22.8438C74.7357 21.852 76.5811 21.356 78.6802 21.356C81.5866 21.356 83.9279 22.1345 85.7041 23.6915C87.4802 25.2486 88.5067 27.4342 88.7835 30.2483H83.5934C83.4666 28.6221 83.011 27.4457 82.2267 26.7191C81.454 25.9809 80.2718 25.6119 78.6802 25.6119C76.9502 25.6119 75.6527 26.2347 74.7876 27.4803C73.9342 28.7144 73.4959 30.6347 73.4728 33.2413V35.1443C73.4728 37.8662 73.8823 39.8557 74.7011 41.1128C75.5315 42.37 76.8348 42.9986 78.611 42.9986C80.2141 42.9986 81.4079 42.6353 82.1921 41.9087C82.9879 41.1705 83.4435 40.0345 83.5588 38.5005H88.7489ZM112.658 46.8911H107.468V36.0958H97.3471V46.8911H92.157V21.702H97.3471V31.9091H107.468V21.702H112.658V46.8911ZM137.899 34.8675C137.899 37.3472 137.461 39.5212 136.584 41.3896C135.707 43.2581 134.45 44.6998 132.813 45.7147C131.186 46.7296 129.318 47.2371 127.207 47.2371C125.12 47.2371 123.257 46.7354 121.619 45.732C119.982 44.7286 118.713 43.2984 117.813 41.4415C116.914 39.5731 116.458 37.4279 116.447 35.0059V33.7603C116.447 31.2806 116.891 29.1007 117.779 27.2208C118.678 25.3293 119.941 23.8818 121.567 22.8784C123.205 21.8635 125.074 21.356 127.173 21.356C129.272 21.356 131.134 21.8635 132.761 22.8784C134.398 23.8818 135.661 25.3293 136.549 27.2208C137.449 29.1007 137.899 31.2748 137.899 33.743V34.8675ZM132.64 33.7257C132.64 31.0845 132.167 29.0777 131.221 27.7052C130.275 26.3327 128.926 25.6465 127.173 25.6465C125.431 25.6465 124.087 26.3269 123.142 27.6879C122.196 29.0373 121.717 31.0211 121.706 33.6392V34.8675C121.706 37.4394 122.179 39.4347 123.124 40.8533C124.07 42.272 125.431 42.9813 127.207 42.9813C128.949 42.9813 130.287 42.3008 131.221 40.9398C132.155 39.5674 132.628 37.5721 132.64 34.954V33.7257ZM146.86 42.7218H157.881V46.8911H141.67V21.702H146.86V42.7218ZM175.44 41.7011H166.34L164.61 46.8911H159.092L168.468 21.702H173.278L182.706 46.8911H177.188L175.44 41.7011ZM167.742 37.4971H174.039L170.873 28.0685L167.742 37.4971ZM194.384 37.6701H190.249V46.8911H185.059V21.702H194.419C197.394 21.702 199.689 22.3652 201.304 23.6915C202.919 25.0179 203.726 26.8921 203.726 29.3141C203.726 31.0326 203.351 32.4685 202.602 33.6219C201.863 34.7637 200.739 35.6748 199.228 36.3553L204.678 46.6489V46.8911H199.107L194.384 37.6701ZM190.249 33.4662H194.436C195.739 33.4662 196.748 33.1375 197.463 32.48C198.178 31.8111 198.536 30.8942 198.536 29.7293C198.536 28.5414 198.196 27.6072 197.515 26.9267C196.846 26.2462 195.814 25.906 194.419 25.906H190.249V33.4662Z" fill="#3D4865"/>
<path d="M58.7509 11.2317C58.6254 12.9665 57.9831 14.3322 56.8241 15.3287C55.6725 16.3253 54.1518 16.8236 52.262 16.8236C50.195 16.8236 48.5673 16.1297 47.3788 14.7419C46.1976 13.3466 45.6071 11.4347 45.6071 9.00599V8.02048C45.6071 6.47024 45.8802 5.10456 46.4265 3.92343C46.9728 2.74229 47.7516 1.83799 48.7629 1.21051C49.7816 0.575653 50.9628 0.258224 52.3063 0.258224C54.1666 0.258224 55.6652 0.756514 56.802 1.75309C57.9388 2.74968 58.5958 4.14858 58.773 5.94981H55.4511C55.3699 4.90893 55.0783 4.15596 54.5763 3.69089C54.0817 3.21844 53.325 2.98221 52.3063 2.98221C51.199 2.98221 50.3685 3.38084 49.8149 4.17811C49.2686 4.96799 48.9881 6.19711 48.9733 7.86545V9.0835C48.9733 10.8257 49.2354 12.0991 49.7595 12.9037C50.291 13.7084 51.1252 14.1107 52.262 14.1107C53.2881 14.1107 54.0522 13.8782 54.5542 13.4131C55.0635 12.9406 55.3551 12.2135 55.4289 11.2317H58.7509ZM65.3881 13.9335H72.4417V16.6021H62.0662V0.479686H65.3881V13.9335ZM79.0235 16.6021H75.7016V0.479686H79.0235V16.6021ZM96.3574 16.6021H93.0354L86.5687 5.9941V16.6021H83.2468V0.479686H86.5687L93.0465 11.1099V0.479686H96.3574V16.6021ZM103.925 16.6021H100.603V0.479686H103.925V16.6021ZM120.805 11.2317C120.679 12.9665 120.037 14.3322 118.878 15.3287C117.726 16.3253 116.206 16.8236 114.316 16.8236C112.249 16.8236 110.621 16.1297 109.433 14.7419C108.251 13.3466 107.661 11.4347 107.661 9.00599V8.02048C107.661 6.47024 107.934 5.10456 108.48 3.92343C109.026 2.74229 109.805 1.83799 110.817 1.21051C111.835 0.575653 113.017 0.258224 114.36 0.258224C116.22 0.258224 117.719 0.756514 118.856 1.75309C119.993 2.74968 120.65 4.14858 120.827 5.94981H117.505C117.424 4.90893 117.132 4.15596 116.63 3.69089C116.135 3.21844 115.379 2.98221 114.36 2.98221C113.253 2.98221 112.422 3.38084 111.869 4.17811C111.322 4.96799 111.042 6.19711 111.027 7.86545V9.0835C111.027 10.8257 111.289 12.0991 111.813 12.9037C112.345 13.7084 113.179 14.1107 114.316 14.1107C115.342 14.1107 116.106 13.8782 116.608 13.4131C117.117 12.9406 117.409 12.2135 117.483 11.2317H120.805ZM133.222 13.2802H127.398L126.29 16.6021H122.758L128.76 0.479686H131.838L137.873 16.6021H134.34L133.222 13.2802ZM128.294 10.5894H132.325L130.299 4.55459L128.294 10.5894ZM143.834 13.9335H150.888V16.6021H140.513V0.479686H143.834V13.9335Z" fill="#3D4865"/>
</g>
<defs>
<clipPath id="clip0">
<rect width="208" height="48.256" fill="white"/>
</clipPath>
<clipPath id="clip1">
<rect width="21.5806" height="21.5806" fill="white" transform="translate(7.89749 -0.171173) rotate(-19.4211)"/>
</clipPath>
</defs>
</svg>
