<svg width="45" height="45" viewBox="0 0 45 45" fill="none" xmlns="http://www.w3.org/2000/svg">
<path fill-rule="evenodd" clip-rule="evenodd" d="M22.502 44.0041C34.3773 44.0041 44.0041 34.3773 44.0041 22.502C44.0041 10.6268 34.3773 1 22.502 1C10.6268 1 1 10.6268 1 22.502C1 34.3773 10.6268 44.0041 22.502 44.0041Z" stroke="#E5E5E5" stroke-width="0.895919"/>
<path d="M27.287 12.6512L24.7585 12.6471C21.9178 12.6471 20.082 14.5338 20.082 17.4539V19.6702H17.5397C17.32 19.6702 17.1421 19.8486 17.1421 20.0687V23.2798C17.1421 23.4999 17.3202 23.6781 17.5397 23.6781H20.082V31.7808C20.082 32.0009 20.2599 32.1791 20.4796 32.1791H23.7966C24.0163 32.1791 24.1942 32.0007 24.1942 31.7808V23.6781H27.1667C27.3864 23.6781 27.5643 23.4999 27.5643 23.2798L27.5655 20.0687C27.5655 19.963 27.5235 19.8618 27.4491 19.7871C27.3746 19.7123 27.2732 19.6702 27.1677 19.6702H24.1942V17.7915C24.1942 16.8884 24.409 16.43 25.5833 16.43L27.2866 16.4294C27.5061 16.4294 27.684 16.251 27.684 16.0312V13.0494C27.684 12.8298 27.5063 12.6516 27.287 12.6512Z" fill="#626262"/>
</svg>
