<svg width="45" height="45" viewBox="0 0 45 45" fill="none" xmlns="http://www.w3.org/2000/svg">
<path fill-rule="evenodd" clip-rule="evenodd" d="M22.5138 44.0041C34.389 44.0041 44.0158 34.3773 44.0158 22.502C44.0158 10.6268 34.389 1 22.5138 1C10.6385 1 1.01172 10.6268 1.01172 22.502C1.01172 34.3773 10.6385 44.0041 22.5138 44.0041Z" stroke="#E5E5E5" stroke-width="0.895919"/>
<path fill-rule="evenodd" clip-rule="evenodd" d="M18.4826 11.7511H26.5458C30.2563 11.7511 33.2652 14.76 33.2652 18.4705V26.5338C33.2652 30.2442 30.2563 33.2531 26.5458 33.2531H18.4826C14.7721 33.2531 11.7632 30.2442 11.7632 26.5338V18.4705C11.7632 14.76 14.7721 11.7511 18.4826 11.7511ZM26.5452 31.2373C29.1389 31.2373 31.2488 29.1274 31.2488 26.5337V18.4705C31.2488 15.8768 29.1389 13.7669 26.5452 13.7669H18.4819C15.8882 13.7669 13.7783 15.8768 13.7783 18.4705V26.5337C13.7783 29.1274 15.8882 31.2373 18.4819 31.2373H26.5452ZM17.1378 22.5021C17.1378 19.5335 19.5446 17.1266 22.5133 17.1266C25.4819 17.1266 27.8888 19.5335 27.8888 22.5021C27.8888 25.4708 25.4819 27.8777 22.5133 27.8777C19.5446 27.8777 17.1378 25.4708 17.1378 22.5021ZM19.153 22.5022C19.153 24.3541 20.6608 25.8619 22.5127 25.8619C24.3645 25.8619 25.8723 24.3541 25.8723 22.5022C25.8723 20.649 24.3645 19.1425 22.5127 19.1425C20.6608 19.1425 19.153 20.649 19.153 22.5022ZM29.6811 16.6787C29.6811 17.4209 29.0794 18.0225 28.3372 18.0225C27.595 18.0225 26.9933 17.4209 26.9933 16.6787C26.9933 15.9365 27.595 15.3348 28.3372 15.3348C29.0794 15.3348 29.6811 15.9365 29.6811 16.6787Z" fill="#626262"/>
</svg>
