<svg width="347" height="82" viewBox="0 0 347 82" fill="none" xmlns="http://www.w3.org/2000/svg">
<path d="M24.1568 72.0873C24.1491 71.8447 24.146 71.6017 24.146 71.3592V59.9173C24.146 59.554 24.1106 59.1672 24.0285 58.7797C24.0259 58.9745 24.0246 59.1707 24.0246 59.3684V69.8721C24.0246 70.6128 24.0524 71.3589 24.1568 72.0873Z" fill="white"/>
<path d="M37.1784 35.7371C42.2708 39.2271 46.7668 45.5048 47.5897 56.0423C48.0969 55.8209 48.7143 55.6907 49.4609 55.6907H60.8C64.3391 55.6907 69.381 53.9567 69.381 45.5771C69.381 37.1975 65.201 34.2377 60.8 34.2377H44.2509C42.2337 34.2377 39.7297 34.6674 37.1784 35.7371Z" fill="white"/>
<path fill-rule="evenodd" clip-rule="evenodd" d="M45.4782 59.3684V69.8721C45.4782 71.4466 45.3523 73.0454 44.6335 74.4462C43.4234 76.8045 40.6544 80.2088 34.7521 80.2088C28.8498 80.2088 26.0808 76.8046 24.8707 74.4462C24.1519 73.0454 24.0246 71.4466 24.0246 69.8721L24.026 59.6752C24.026 57.9675 23.1648 55.6907 20.0419 55.6907C16.9191 55.6907 12.242 55.6907 8.70283 55.6907C5.16367 55.6907 0.121826 53.9567 0.121826 45.5771C0.121826 37.1975 4.3018 34.2377 8.70283 34.2377H25.2519C32.3507 34.2377 45.4782 39.5592 45.4782 59.3684Z" fill="white"/>
<path d="M51.7962 3.5248L51.5325 2.77689L31.6593 0.583147L17.5687 14.7434L17.8374 15.5056L37.6933 17.6976L51.7962 3.5248Z" fill="white"/>
<path d="M54.1727 15.968L51.2241 7.60481L50.1195 8.75602L52.8292 16.4417L52.8941 19.4172L54.8419 20.7218L55.2896 20.5639L55.9883 18.3263L54.1727 15.968Z" fill="white"/>
<path d="M24.7972 18.9187C25.0406 20.1846 25.4373 21.5142 25.8514 22.902C27.7212 29.1693 34.3214 32.7333 40.5934 30.862C46.865 28.9909 50.4335 22.3931 48.5637 16.1259C48.3746 15.4918 48.2053 14.8651 48.0404 14.2546C47.7926 13.337 47.5547 12.4562 47.2742 11.6428L38.5261 20.4343L24.7972 18.9187Z" fill="white"/>
<path d="M92.8439 81.4169C103.486 81.4169 108.629 75.9777 108.629 68.7649C108.629 54.0437 85.9858 58.2414 85.9858 51.9745C85.9858 49.6097 87.9959 48.0134 91.6023 48.0134C95.6226 48.0134 99.8793 49.3732 103.072 52.3292L107.742 46.1806C103.84 42.5742 98.6378 40.6823 92.3709 40.6823C83.0889 40.6823 77.4132 46.1215 77.4132 52.684C77.4132 67.5234 100.116 62.7346 100.116 69.7109C100.116 71.9575 97.8692 74.0858 93.2577 74.0858C87.8186 74.0858 83.5027 71.6619 80.724 68.7649L76.1717 75.15C79.8372 78.8747 85.2764 81.4169 92.8439 81.4169Z" fill="white"/>
<path d="M133.378 81.4169C142.069 81.4169 147.035 76.6281 149.873 71.721L142.66 68.2328C141.005 71.4845 137.457 73.9676 133.378 73.9676C126.224 73.9676 121.022 68.4693 121.022 61.0201C121.022 53.5708 126.224 48.0725 133.378 48.0725C137.457 48.0725 141.005 50.6147 142.66 53.8073L149.873 50.26C147.094 45.3529 142.069 40.6232 133.378 40.6232C121.554 40.6232 112.39 48.9002 112.39 61.0201C112.39 73.1399 121.554 81.4169 133.378 81.4169Z" fill="white"/>
<path d="M190.343 80.7074V41.2736H181.888V56.7633H163.265V41.2736H154.87V80.7074H163.265V64.1535H181.888V80.7074H190.343Z" fill="white"/>
<path d="M216.796 81.4169C228.739 81.4169 237.429 72.9034 237.429 61.0201C237.429 49.1367 228.739 40.6232 216.796 40.6232C204.913 40.6232 196.222 49.1367 196.222 61.0201C196.222 72.9034 204.913 81.4169 216.796 81.4169ZM216.796 73.9676C209.524 73.9676 204.854 68.3511 204.854 61.0201C204.854 53.6299 209.524 48.0725 216.796 48.0725C224.068 48.0725 228.798 53.6299 228.798 61.0201C228.798 68.3511 224.068 73.9676 216.796 73.9676Z" fill="white"/>
<path d="M268.388 80.7074V73.3173H251.716V41.2736H243.321V80.7074H268.388Z" fill="white"/>
<path d="M311.04 80.7074L295.846 41.2736H285.323L270.069 80.7074H279.647L282.13 74.0267H299.039L301.463 80.7074H311.04ZM296.733 66.6366H284.436L290.585 49.6688L296.733 66.6366Z" fill="white"/>
<path d="M346.607 80.7074L337.739 65.6906C341.996 64.6856 346.371 60.9609 346.371 53.9846C346.371 46.6536 341.346 41.2736 333.128 41.2736H314.682V80.7074H323.077V66.6957H329.226L336.971 80.7074H346.607ZM331.886 59.3055H323.077V48.6637H331.886C335.256 48.6637 337.798 50.6738 337.798 53.9846C337.798 57.2954 335.256 59.3055 331.886 59.3055Z" fill="white"/>
<path d="M89.1952 28.9516C94.7578 28.9516 97.9364 25.8864 99.7528 22.7456L95.1362 20.513C94.0766 22.5943 91.8062 24.1836 89.1952 24.1836C84.6164 24.1836 81.2864 20.6644 81.2864 15.8964C81.2864 11.1285 84.6164 7.60926 89.1952 7.60926C91.8062 7.60926 94.0766 9.23642 95.1362 11.2798L99.7528 9.00937C97.9743 5.86858 94.7578 2.8413 89.1952 2.8413C81.627 2.8413 75.7616 8.13903 75.7616 15.8964C75.7616 23.6538 81.627 28.9516 89.1952 28.9516Z" fill="white"/>
<path d="M120.888 28.4975V23.7673H110.217V3.25755H104.843V28.4975H120.888Z" fill="white"/>
<path d="M131.916 28.4975V3.25755H126.543V28.4975H131.916Z" fill="white"/>
<path d="M161.41 28.4975V3.25755H156.036V19.1129L144.344 3.25755H138.819V28.4975H144.192V12.0367L156.226 28.4975H161.41Z" fill="white"/>
<path d="M173.652 28.4975V3.25755H168.279V28.4975H173.652Z" fill="white"/>
<path d="M192.777 28.9516C198.34 28.9516 201.519 25.8864 203.335 22.7456L198.718 20.513C197.659 22.5943 195.388 24.1836 192.777 24.1836C188.199 24.1836 184.869 20.6644 184.869 15.8964C184.869 11.1285 188.199 7.60926 192.777 7.60926C195.388 7.60926 197.659 9.23642 198.718 11.2798L203.335 9.00937C201.556 5.86858 198.34 2.8413 192.777 2.8413C185.209 2.8413 179.344 8.13903 179.344 15.8964C179.344 23.6538 185.209 28.9516 192.777 28.9516Z" fill="white"/>
<path d="M231.704 28.4975L221.979 3.25755H215.243L205.48 28.4975H211.61L213.2 24.2214H224.022L225.574 28.4975H231.704ZM222.546 19.4913H214.675L218.611 8.63097L222.546 19.4913Z" fill="white"/>
<path d="M251.971 28.4975V23.7673H241.3V3.25755H235.927V28.4975H251.971Z" fill="white"/>
</svg>
