<svg width="34" height="33" viewBox="0 0 34 33" fill="none" xmlns="http://www.w3.org/2000/svg">
<rect x="0.992188" y="0.48291" width="32.0938" height="32.0938" rx="12" fill="#EAEAEA"/>
<path d="M21.7923 17.8612V16.4065H20.8332V18.085C20.8315 18.1585 20.8435 18.2316 20.8684 18.2992C20.8932 18.3668 20.9303 18.4273 20.9771 18.4766L22.2719 19.9872V20.8824H11.7216V19.9872L13.0164 18.4766C13.0632 18.4273 13.1003 18.3668 13.1251 18.2992C13.15 18.2316 13.162 18.1585 13.1603 18.085V15.2875C13.1603 14.1005 13.5645 12.962 14.2839 12.1226C15.0034 11.2832 15.9792 10.8116 16.9967 10.8116C17.6713 10.8118 18.3336 11.0223 18.915 11.4215V10.1403C18.4591 9.902 17.9733 9.75088 17.4763 9.69267V8.5737H16.5172V9.69267C15.3363 9.84973 14.2456 10.5054 13.4505 11.536C12.6554 12.5666 12.2111 13.901 12.2011 15.2875V17.8612L10.9063 19.3718C10.8595 19.4211 10.8224 19.4816 10.7976 19.5492C10.7727 19.6168 10.7608 19.6899 10.7625 19.7634V21.4419C10.7582 21.5167 10.7677 21.5916 10.7903 21.6617C10.8129 21.7319 10.8481 21.7955 10.8935 21.8485C10.9389 21.9015 10.9935 21.9425 11.0536 21.9689C11.1137 21.9953 11.1779 22.0063 11.242 22.0014H14.5989C14.5989 22.7433 14.8516 23.4549 15.3012 23.9795C15.7509 24.5041 16.3608 24.7988 16.9967 24.7988C17.6327 24.7988 18.2426 24.5041 18.6922 23.9795C19.1419 23.4549 19.3945 22.7433 19.3945 22.0014H22.7515C22.8155 22.0063 22.8798 21.9953 22.9399 21.9689C23 21.9425 23.0546 21.9015 23.1 21.8485C23.1454 21.7955 23.1806 21.7319 23.2032 21.6617C23.2258 21.5916 23.2353 21.5167 23.231 21.4419V19.7634C23.2327 19.6899 23.2207 19.6168 23.1959 19.5492C23.1711 19.4816 23.134 19.4211 23.0872 19.3718L21.7923 17.8612ZM16.9967 23.6799C16.6152 23.6799 16.2492 23.503 15.9794 23.1882C15.7096 22.8735 15.5581 22.4466 15.5581 22.0014H18.4354C18.4354 22.4466 18.2839 22.8735 18.014 23.1882C17.7442 23.503 17.3783 23.6799 16.9967 23.6799Z" fill="#333333"/>
<path d="M21.7923 17.8612V16.4065H20.8332V18.085C20.8315 18.1585 20.8435 18.2316 20.8684 18.2992C20.8932 18.3668 20.9303 18.4273 20.9771 18.4766L22.2719 19.9872V20.8824H11.7216V19.9872L13.0164 18.4766C13.0632 18.4273 13.1003 18.3668 13.1251 18.2992C13.15 18.2316 13.162 18.1585 13.1603 18.085V15.2875C13.1603 14.1005 13.5645 12.962 14.2839 12.1226C15.0034 11.2832 15.9792 10.8116 16.9967 10.8116C17.6713 10.8118 18.3336 11.0223 18.915 11.4215V10.1403C18.4591 9.902 17.9733 9.75088 17.4763 9.69267V8.5737H16.5172V9.69267C15.3363 9.84973 14.2456 10.5054 13.4505 11.536C12.6554 12.5666 12.2111 13.901 12.2011 15.2875V17.8612L10.9063 19.3718C10.8595 19.4211 10.8224 19.4816 10.7976 19.5492C10.7727 19.6168 10.7608 19.6899 10.7625 19.7634V21.4419C10.7582 21.5167 10.7677 21.5916 10.7903 21.6617C10.8129 21.7319 10.8481 21.7955 10.8935 21.8485C10.9389 21.9015 10.9935 21.9425 11.0536 21.9689C11.1137 21.9953 11.1779 22.0063 11.242 22.0014H14.5989C14.5989 22.7433 14.8516 23.4549 15.3012 23.9795C15.7509 24.5041 16.3608 24.7988 16.9967 24.7988C17.6327 24.7988 18.2426 24.5041 18.6922 23.9795C19.1419 23.4549 19.3945 22.7433 19.3945 22.0014H22.7515C22.8155 22.0063 22.8798 21.9953 22.9399 21.9689C23 21.9425 23.0546 21.9015 23.1 21.8485C23.1454 21.7955 23.1806 21.7319 23.2032 21.6617C23.2258 21.5916 23.2353 21.5167 23.231 21.4419V19.7634C23.2327 19.6899 23.2207 19.6168 23.1959 19.5492C23.1711 19.4816 23.134 19.4211 23.0872 19.3718L21.7923 17.8612ZM16.9967 23.6799C16.6152 23.6799 16.2492 23.503 15.9794 23.1882C15.7096 22.8735 15.5581 22.4466 15.5581 22.0014H18.4354C18.4354 22.4466 18.2839 22.8735 18.014 23.1882C17.7442 23.503 17.3783 23.6799 16.9967 23.6799Z" fill="#333333"/>
<path d="M21.5775 14.7279C22.7555 14.7279 23.7105 13.7259 23.7105 12.49C23.7105 11.254 22.7555 10.252 21.5775 10.252C20.3995 10.252 19.4446 11.254 19.4446 12.49C19.4446 13.7259 20.3995 14.7279 21.5775 14.7279Z" fill="#333333"/>
<path d="M21.5775 14.7279C22.7555 14.7279 23.7105 13.7259 23.7105 12.49C23.7105 11.254 22.7555 10.252 21.5775 10.252C20.3995 10.252 19.4446 11.254 19.4446 12.49C19.4446 13.7259 20.3995 14.7279 21.5775 14.7279Z" fill="#333333"/>
</svg>
