<svg width="45" height="45" viewBox="0 0 45 45" fill="none" xmlns="http://www.w3.org/2000/svg">
<path fill-rule="evenodd" clip-rule="evenodd" d="M22.506 44.0041C34.3812 44.0041 44.008 34.3773 44.008 22.502C44.008 10.6268 34.3812 1 22.506 1C10.6307 1 1.00391 10.6268 1.00391 22.502C1.00391 34.3773 10.6307 44.0041 22.506 44.0041Z" stroke="#E5E5E5" stroke-width="0.9"/>
<path d="M32.3616 16.3479C31.6366 16.6716 30.8567 16.8905 30.0389 16.9882C30.8739 16.4845 31.5148 15.6876 31.8172 14.7363C31.0359 15.203 30.17 15.5415 29.2493 15.724C28.5117 14.9331 27.4607 14.4388 26.2969 14.4388C24.0641 14.4388 22.2532 16.262 22.2532 18.51C22.2532 18.8291 22.289 19.1397 22.3584 19.4378C18.9977 19.2681 16.0178 17.6474 14.0232 15.1836C13.6752 15.7847 13.4756 16.4845 13.4756 17.2305C13.4756 18.6426 14.19 19.8893 15.2744 20.6192C14.6119 20.5982 13.9879 20.4151 13.443 20.1094C13.4427 20.1267 13.4427 20.144 13.4427 20.161C13.4427 22.1336 14.8372 23.7789 16.6867 24.1527C16.3477 24.2462 15.9898 24.2957 15.6216 24.2957C15.3604 24.2957 15.1074 24.2705 14.8607 24.2231C15.3752 25.8401 16.8683 27.0173 18.6382 27.0504C17.254 28.1425 15.5106 28.7931 13.6155 28.7931C13.2898 28.7931 12.9671 28.774 12.6514 28.736C14.44 29.8916 16.5661 30.5653 18.8496 30.5653C26.2876 30.5653 30.3552 24.3618 30.3552 18.9815C30.3552 18.8051 30.3513 18.6293 30.3435 18.455C31.1342 17.8812 31.8197 17.1643 32.3616 16.3479Z" fill="#626262"/>
</svg>
