<svg width="55" height="49" viewBox="0 0 55 49" fill="none" xmlns="http://www.w3.org/2000/svg">
<path d="M53.9003 36.5301L34.7253 4.73015C33.9499 3.51719 32.8816 2.51896 31.619 1.82749C30.3563 1.13603 28.9399 0.77359 27.5002 0.77359C26.0606 0.77359 24.6442 1.13603 23.3815 1.82749C22.1189 2.51896 21.0506 3.51719 20.2752 4.73015L1.10025 36.5301C0.422884 37.6593 0.0547224 38.9469 0.03278 40.2634C0.0108375 41.5799 0.335888 42.8791 0.97525 44.0301C1.71445 45.3258 2.7844 46.402 4.07575 47.1487C5.36711 47.8954 6.83356 48.2858 8.32525 48.2801H46.6753C48.1571 48.296 49.617 47.9206 50.9074 47.192C52.1979 46.4633 53.2734 45.4072 54.0253 44.1301C54.6834 42.9671 55.0188 41.6493 54.9968 40.3131C54.9749 38.977 54.5963 37.6709 53.9003 36.5301ZM49.6503 41.6551C49.3498 42.1716 48.9138 42.5961 48.3894 42.8825C47.865 43.1689 47.2722 43.3064 46.6753 43.2801H8.32525C7.72831 43.3064 7.13554 43.1689 6.61115 42.8825C6.08675 42.5961 5.65071 42.1716 5.35025 41.6551C5.13083 41.2751 5.01531 40.844 5.01531 40.4052C5.01531 39.9663 5.13083 39.5352 5.35025 39.1552L24.5502 7.33015C24.8953 6.87441 25.3412 6.50481 25.853 6.25033C26.3648 5.99585 26.9286 5.86342 27.5002 5.86342C28.0718 5.86342 28.6357 5.99585 29.1475 6.25033C29.6593 6.50481 30.1052 6.87441 30.4503 7.33015L49.6253 39.1301C49.8531 39.5109 49.9756 39.9455 49.98 40.3893C49.9844 40.833 49.8706 41.2699 49.6503 41.6551Z" fill="#D13535"/>
<path d="M27.5 38.2802C28.8807 38.2802 30 37.1609 30 35.7802C30 34.3994 28.8807 33.2802 27.5 33.2802C26.1193 33.2802 25 34.3994 25 35.7802C25 37.1609 26.1193 38.2802 27.5 38.2802Z" fill="#D13535"/>
<path d="M27.5 15.7802C26.837 15.7802 26.2011 16.0435 25.7322 16.5124C25.2634 16.9812 25 17.6171 25 18.2802V28.2802C25 28.9432 25.2634 29.5791 25.7322 30.0479C26.2011 30.5168 26.837 30.7802 27.5 30.7802C28.163 30.7802 28.7989 30.5168 29.2678 30.0479C29.7366 29.5791 30 28.9432 30 28.2802V18.2802C30 17.6171 29.7366 16.9812 29.2678 16.5124C28.7989 16.0435 28.163 15.7802 27.5 15.7802Z" fill="#D13535"/>
</svg>
