<svg width="45" height="45" viewBox="0 0 45 45" fill="none" xmlns="http://www.w3.org/2000/svg">
<path fill-rule="evenodd" clip-rule="evenodd" d="M22.5099 44.0041C34.3851 44.0041 44.0119 34.3773 44.0119 22.502C44.0119 10.6268 34.3851 1 22.5099 1C10.6346 1 1.00781 10.6268 1.00781 22.502C1.00781 34.3773 10.6346 44.0041 22.5099 44.0041Z" stroke="#E5E5E5" stroke-width="0.895919"/>
<path d="M33.2902 15.9221C33.0102 14.9421 32.3102 14.2421 31.3302 13.9621C28.3902 13.6821 25.4502 13.4021 22.5102 13.5421C19.5702 13.5421 16.6302 13.6821 13.6902 13.9621C12.8502 14.2421 12.0102 15.0821 11.7302 15.9221C11.172 20.291 11.172 24.7132 11.7302 29.0821C12.0102 30.0621 12.7102 30.7621 13.6902 31.0421C16.6302 31.3221 19.5702 31.6021 22.5102 31.4621C25.4502 31.4621 28.3902 31.3221 31.3302 31.0421C32.3102 30.7621 33.0102 30.0621 33.2902 29.0821C33.8485 24.7132 33.8485 20.291 33.2902 15.9221ZM19.7102 26.7021V18.3021L26.9902 22.5021L19.7102 26.7021Z" fill="#626262"/>
</svg>
